<svg width="393" height="87" viewBox="0 0 393 87" fill="none" xmlns="http://www.w3.org/2000/svg">
<g clip-path="url(#clip0_37_4324)">
<path d="M216.5 0H176.5V40H216.5V0Z" fill="#0E1828"/>
<path d="M183.1 19.8945L184.223 12.635C184.223 12.635 191.07 13.4975 194.125 7.15002C196.159 7.33552 198.905 8.15002 201.092 9.42402C201.092 9.42402 196.786 20.8675 183.1 19.8945Z" fill="#909090"/>
<path d="M198.219 16.3905C199.728 15.0245 201.189 13.152 202.415 10.307C202.415 10.307 214.598 18.523 207.818 32.8045L201.536 29.1905C201.536 29.1905 205.596 21.777 198.219 16.3905Z" fill="#909090"/>
<path d="M195.154 25.52C195.154 27.9735 193.124 29.984 190.67 29.984C188.217 29.984 186.226 27.9735 186.226 25.52C186.226 23.0665 188.237 21.056 190.69 21.056C193.144 21.056 195.154 23.0665 195.154 25.52Z" fill="#909090"/>
</g>
<path d="M101.827 53.9329H127.542C128.184 53.9329 128.716 54.1265 129.136 54.5139C129.369 54.7353 129.518 54.9179 129.584 55.0618C129.784 55.4491 129.883 55.7756 129.883 56.0413V59.9592H117.482V77.0588H113.63C113.088 77.0588 112.579 76.843 112.103 76.4114C112.092 76.4003 112.081 76.3837 112.07 76.3616C112.037 76.3284 111.992 76.2786 111.937 76.2122C111.616 75.7916 111.456 75.3599 111.456 74.9172V59.9592H99.4858V56.9045C99.4858 56.1187 99.5079 55.7203 99.5522 55.7092C99.6518 55.2665 99.8233 54.9124 100.067 54.6467C100.332 54.4143 100.526 54.2704 100.648 54.2151C100.925 54.0269 101.317 53.9329 101.827 53.9329ZM136.782 53.9329H141.646C142.631 53.9329 143.456 54.3424 144.12 55.1614C144.297 55.4049 144.519 55.7812 144.784 56.2903C144.828 56.3567 144.867 56.4231 144.9 56.4895C145 56.6444 145.852 58.1386 147.457 60.9719C147.911 61.7799 148.431 62.6985 149.018 63.7278C152.659 70.1581 154.529 73.4452 154.629 73.5891L156.571 77.0588H151.458C150.108 77.0588 149.112 76.4224 148.47 75.1497C148.016 74.3749 147.684 73.7994 147.474 73.4231C147.297 73.1021 147.197 72.9306 147.175 72.9084H131.304C131.282 72.9084 131.254 72.9195 131.221 72.9417C131.199 72.9638 131.182 73.0081 131.171 73.0745L129.677 75.6975C129.002 76.6051 128.105 77.0588 126.987 77.0588H121.924C121.902 77.0588 121.891 77.0588 121.891 77.0588C121.891 77.0478 121.891 77.0367 121.891 77.0256C124.337 72.6982 126.467 68.9462 128.282 65.7698C129.721 63.2353 130.883 61.1877 131.769 59.6272C133.141 57.2034 133.86 55.9417 133.927 55.842C134.104 55.51 134.292 55.2167 134.491 54.9622C135.133 54.276 135.897 53.9329 136.782 53.9329ZM139.223 58.8635L134.026 68.011H144.419C141.021 62.0566 139.289 59.0074 139.223 58.8635ZM165.545 53.9329H183.326C184.145 53.9329 184.792 54.287 185.268 54.9954C185.478 55.3606 185.583 55.7424 185.583 56.1409V59.926H165.645C164.361 59.926 163.31 60.4462 162.491 61.4866C161.971 62.1728 161.71 62.942 161.71 63.7942V67.1975C161.71 68.2157 162.07 69.1122 162.79 69.887C163.133 70.2079 163.409 70.4237 163.62 70.5344C163.819 70.6672 164.04 70.7668 164.284 70.8333C164.749 70.9993 165.103 71.0823 165.346 71.0823H185.534V74.9172C185.534 75.526 185.263 76.0793 184.72 76.5774C184.3 76.8984 183.835 77.0588 183.326 77.0588H165.512C163.476 77.0588 161.572 76.4335 159.801 75.1829C159.502 74.9726 159.082 74.6129 158.54 74.1038C157.975 73.495 157.593 73.0191 157.394 72.676C157.062 72.1669 156.813 71.7242 156.647 71.3479C156.027 70.064 155.717 68.6252 155.717 67.0315V63.9768C155.717 62.2392 156.094 60.6731 156.846 59.2786C157.045 58.8801 157.317 58.4264 157.66 57.9172C157.748 57.8176 157.842 57.7069 157.942 57.5852C158.108 57.386 158.296 57.1702 158.506 56.9377C159.093 56.3622 159.569 55.9638 159.934 55.7424C160.554 55.2997 161.168 54.9456 161.777 54.6799C163.039 54.1819 164.295 53.9329 165.545 53.9329ZM189.312 53.9329H215.027C215.669 53.9329 216.201 54.1265 216.621 54.5139C216.854 54.7353 217.003 54.9179 217.069 55.0618C217.269 55.4491 217.368 55.7756 217.368 56.0413V59.9592H204.967V77.0588H201.115C200.573 77.0588 200.064 76.843 199.588 76.4114C199.577 76.4003 199.566 76.3837 199.555 76.3616C199.521 76.3284 199.477 76.2786 199.422 76.2122C199.101 75.7916 198.94 75.3599 198.94 74.9172V59.9592H186.971V56.9045C186.971 56.1187 186.993 55.7203 187.037 55.7092C187.137 55.2665 187.308 54.9124 187.552 54.6467C187.817 54.4143 188.011 54.2704 188.133 54.2151C188.41 54.0269 188.802 53.9329 189.312 53.9329ZM219.751 53.9329H224.616C225.49 53.9329 226.154 54.3092 226.608 55.0618C226.796 55.3827 226.89 55.7812 226.89 56.2571V77.0588H221.893C221.351 77.0588 220.842 76.8319 220.366 76.3782C219.956 75.9576 219.751 75.4264 219.751 74.7844V53.9329ZM239.019 53.9329H256.799C257.618 53.9329 258.265 54.287 258.741 54.9954C258.952 55.3606 259.057 55.7424 259.057 56.1409V59.926H239.118C237.834 59.926 236.783 60.4462 235.964 61.4866C235.444 62.1728 235.184 62.942 235.184 63.7942V67.1975C235.184 68.2157 235.543 69.1122 236.263 69.887C236.606 70.2079 236.883 70.4237 237.093 70.5344C237.292 70.6672 237.513 70.7668 237.757 70.8333C238.222 70.9993 238.576 71.0823 238.819 71.0823H259.007V74.9172C259.007 75.526 258.736 76.0793 258.193 76.5774C257.773 76.8984 257.308 77.0588 256.799 77.0588H238.985C236.949 77.0588 235.045 76.4335 233.274 75.1829C232.976 74.9726 232.555 74.6129 232.013 74.1038C231.448 73.495 231.066 73.0191 230.867 72.676C230.535 72.1669 230.286 71.7242 230.12 71.3479C229.5 70.064 229.19 68.6252 229.19 67.0315V63.9768C229.19 62.2392 229.567 60.6731 230.319 59.2786C230.519 58.8801 230.79 58.4264 231.133 57.9172C231.221 57.8176 231.315 57.7069 231.415 57.5852C231.581 57.386 231.769 57.1702 231.98 56.9377C232.566 56.3622 233.042 55.9638 233.407 55.7424C234.027 55.2997 234.641 54.9456 235.25 54.6799C236.512 54.1819 237.768 53.9329 239.019 53.9329ZM274.588 53.9329H279.453C280.438 53.9329 281.262 54.3424 281.926 55.1614C282.103 55.4049 282.325 55.7812 282.59 56.2903C282.635 56.3567 282.673 56.4231 282.707 56.4895C282.806 56.6444 283.658 58.1386 285.263 60.9719C285.717 61.7799 286.237 62.6985 286.824 63.7278C290.465 70.1581 292.336 73.4452 292.435 73.5891L294.378 77.0588H289.264C287.914 77.0588 286.918 76.4224 286.276 75.1497C285.822 74.3749 285.49 73.7994 285.28 73.4231C285.103 73.1021 285.003 72.9306 284.981 72.9084H269.11C269.088 72.9084 269.06 72.9195 269.027 72.9417C269.005 72.9638 268.988 73.0081 268.977 73.0745L267.483 75.6975C266.808 76.6051 265.911 77.0588 264.794 77.0588H259.73C259.708 77.0588 259.697 77.0588 259.697 77.0588C259.697 77.0478 259.697 77.0367 259.697 77.0256C262.143 72.6982 264.273 68.9462 266.088 65.7698C267.527 63.2353 268.689 61.1877 269.575 59.6272C270.947 57.2034 271.667 55.9417 271.733 55.842C271.91 55.51 272.098 55.2167 272.297 54.9622C272.939 54.276 273.703 53.9329 274.588 53.9329ZM277.029 58.8635L271.833 68.011H282.225C278.827 62.0566 277.095 59.0074 277.029 58.8635Z" fill="#909090"/>
<defs>
<clipPath id="clip0_37_4324">
<rect x="176.5" width="40" height="40" rx="6" fill="white"/>
</clipPath>
</defs>
</svg>
